<?xml version="1.0" encoding="UTF-8"?>
<!DOCTYPE svg
PUBLIC "-//W3C//DTD SVG 1.1//EN"
       "http://www.w3.org/Graphics/SVG/1.1/DTD/svg11.dtd">
<svg viewBox="65 35 1112 725" width="1047px" height="690px" xmlns="http://www.w3.org/2000/svg" version="1.1">
   <line x1="980" y1="700" x2="970" y2="700" style="stroke:#cb0;stroke-width:1;"/>
   <line x1="544" y1="640" x2="534" y2="640" style="stroke:#cb0;stroke-width:1;"/>
   <line x1="970" y1="700" x2="544" y2="640" style="stroke:#cb0;stroke-width:1;"/>
   <line x1="972.5" y1="700" x2="976.03553390593" y2="703.53553390593" style="stroke:#cb0;stroke-width:2;"/>
   <line x1="972.5" y1="700" x2="976.03553390593" y2="696.46446609407" style="stroke:#cb0;stroke-width:2;"/>
   <line x1="539" y1="640" x2="542.53553390593" y2="643.53553390593" style="stroke:#cb0;stroke-width:2;"/>
   <line x1="539" y1="640" x2="542.53553390593" y2="636.46446609407" style="stroke:#cb0;stroke-width:2;"/>
   <line x1="500" y1="340" x2="510" y2="340" style="stroke:#cb0;stroke-width:1;"/>
   <line x1="544" y1="640" x2="534" y2="640" style="stroke:#cb0;stroke-width:1;"/>
   <line x1="510" y1="340" x2="544" y2="640" style="stroke:#cb0;stroke-width:1;"/>
   <line x1="507.5" y1="340" x2="503.96446609407" y2="343.53553390593" style="stroke:#cb0;stroke-width:2;"/>
   <line x1="507.5" y1="340" x2="503.96446609407" y2="336.46446609407" style="stroke:#cb0;stroke-width:2;"/>
   <line x1="539" y1="640" x2="542.53553390593" y2="643.53553390593" style="stroke:#cb0;stroke-width:2;"/>
   <line x1="539" y1="640" x2="542.53553390593" y2="636.46446609407" style="stroke:#cb0;stroke-width:2;"/>
   <line x1="500" y1="360" x2="510" y2="360" style="stroke:#0b0;stroke-width:1;"/>
   <line x1="970" y1="680" x2="980" y2="680" style="stroke:#0b0;stroke-width:1;"/>
   <line x1="510" y1="360" x2="970" y2="680" style="stroke:#0b0;stroke-width:1;"/>
   <line x1="507.5" y1="360" x2="503.96446609407" y2="363.53553390593" style="stroke:#0b0;stroke-width:2;"/>
   <line x1="507.5" y1="360" x2="503.96446609407" y2="356.46446609407" style="stroke:#0b0;stroke-width:2;"/>
   <line x1="975" y1="680" x2="971.46446609407" y2="683.53553390593" style="stroke:#0b0;stroke-width:2;"/>
   <line x1="975" y1="680" x2="971.46446609407" y2="676.46446609407" style="stroke:#0b0;stroke-width:2;"/>
   <line x1="990" y1="490" x2="980" y2="490" style="stroke:#b0b;stroke-width:1;"/>
   <line x1="224" y1="570" x2="214" y2="570" style="stroke:#b0b;stroke-width:1;"/>
   <line x1="980" y1="490" x2="224" y2="570" style="stroke:#b0b;stroke-width:1;"/>
   <line x1="982.5" y1="490" x2="986.03553390593" y2="493.53553390593" style="stroke:#b0b;stroke-width:2;"/>
   <line x1="982.5" y1="490" x2="986.03553390593" y2="486.46446609407" style="stroke:#b0b;stroke-width:2;"/>
   <line x1="219" y1="570" x2="222.53553390593" y2="573.53553390593" style="stroke:#b0b;stroke-width:2;"/>
   <line x1="219" y1="570" x2="222.53553390593" y2="566.46446609407" style="stroke:#b0b;stroke-width:2;"/>
   <line x1="1097" y1="470" x2="1107" y2="470" style="stroke:#cb0;stroke-width:1;"/>
   <line x1="1103" y1="660" x2="1093" y2="660" style="stroke:#cb0;stroke-width:1;"/>
   <line x1="1107" y1="470" x2="1103" y2="660" style="stroke:#cb0;stroke-width:1;"/>
   <line x1="1104.5" y1="470" x2="1100.9644660941" y2="473.53553390593" style="stroke:#cb0;stroke-width:2;"/>
   <line x1="1104.5" y1="470" x2="1100.9644660941" y2="466.46446609407" style="stroke:#cb0;stroke-width:2;"/>
   <line x1="1098" y1="660" x2="1101.5355339059" y2="663.53553390593" style="stroke:#cb0;stroke-width:2;"/>
   <line x1="1098" y1="660" x2="1101.5355339059" y2="656.46446609407" style="stroke:#cb0;stroke-width:2;"/>
   <line x1="940" y1="250" x2="930" y2="250" style="stroke:#0bf;stroke-width:1;"/>
   <line x1="544" y1="640" x2="534" y2="640" style="stroke:#0bf;stroke-width:1;"/>
   <line x1="930" y1="250" x2="544" y2="640" style="stroke:#0bf;stroke-width:1;"/>
   <line x1="932.5" y1="250" x2="936.03553390593" y2="253.53553390593" style="stroke:#0bf;stroke-width:2;"/>
   <line x1="932.5" y1="250" x2="936.03553390593" y2="246.46446609407" style="stroke:#0bf;stroke-width:2;"/>
   <line x1="539" y1="640" x2="542.53553390593" y2="643.53553390593" style="stroke:#0bf;stroke-width:2;"/>
   <line x1="539" y1="640" x2="542.53553390593" y2="636.46446609407" style="stroke:#0bf;stroke-width:2;"/>
   <line x1="940" y1="270" x2="930" y2="270" style="stroke:#bbb;stroke-width:1;"/>
   <line x1="224" y1="570" x2="214" y2="570" style="stroke:#bbb;stroke-width:1;"/>
   <line x1="930" y1="270" x2="224" y2="570" style="stroke:#bbb;stroke-width:1;"/>
   <line x1="932.5" y1="270" x2="936.03553390593" y2="273.53553390593" style="stroke:#bbb;stroke-width:2;"/>
   <line x1="932.5" y1="270" x2="936.03553390593" y2="266.46446609407" style="stroke:#bbb;stroke-width:2;"/>
   <line x1="219" y1="570" x2="222.53553390593" y2="573.53553390593" style="stroke:#bbb;stroke-width:2;"/>
   <line x1="219" y1="570" x2="222.53553390593" y2="566.46446609407" style="stroke:#bbb;stroke-width:2;"/>
   <line x1="510" y1="120" x2="500" y2="120" style="stroke:#b0b;stroke-width:1;"/>
   <line x1="247" y1="180" x2="237" y2="180" style="stroke:#b0b;stroke-width:1;"/>
   <line x1="500" y1="120" x2="247" y2="180" style="stroke:#b0b;stroke-width:1;"/>
   <line x1="502.5" y1="120" x2="506.03553390593" y2="123.53553390593" style="stroke:#b0b;stroke-width:2;"/>
   <line x1="502.5" y1="120" x2="506.03553390593" y2="116.46446609407" style="stroke:#b0b;stroke-width:2;"/>
   <line x1="242" y1="180" x2="245.53553390593" y2="183.53553390593" style="stroke:#b0b;stroke-width:2;"/>
   <line x1="242" y1="180" x2="245.53553390593" y2="176.46446609407" style="stroke:#b0b;stroke-width:2;"/>
   <line x1="642" y1="140" x2="652" y2="140" style="stroke:#cb0;stroke-width:1;"/>
   <line x1="930" y1="230" x2="940" y2="230" style="stroke:#cb0;stroke-width:1;"/>
   <line x1="652" y1="140" x2="930" y2="230" style="stroke:#cb0;stroke-width:1;"/>
   <line x1="649.5" y1="140" x2="645.96446609407" y2="143.53553390593" style="stroke:#cb0;stroke-width:2;"/>
   <line x1="649.5" y1="140" x2="645.96446609407" y2="136.46446609407" style="stroke:#cb0;stroke-width:2;"/>
   <line x1="935" y1="230" x2="931.46446609407" y2="233.53553390593" style="stroke:#cb0;stroke-width:2;"/>
   <line x1="935" y1="230" x2="931.46446609407" y2="226.46446609407" style="stroke:#cb0;stroke-width:2;"/>
   <line x1="510" y1="160" x2="500" y2="160" style="stroke:#c00;stroke-width:1;"/>
   <line x1="510" y1="320" x2="500" y2="320" style="stroke:#c00;stroke-width:1;"/>
   <line x1="500" y1="160" x2="510" y2="320" style="stroke:#c00;stroke-width:1;"/>
   <line x1="502.5" y1="160" x2="506.03553390593" y2="163.53553390593" style="stroke:#c00;stroke-width:2;"/>
   <line x1="502.5" y1="160" x2="506.03553390593" y2="156.46446609407" style="stroke:#c00;stroke-width:2;"/>
   <line x1="505" y1="320" x2="508.53553390593" y2="323.53553390593" style="stroke:#c00;stroke-width:2;"/>
   <line x1="505" y1="320" x2="508.53553390593" y2="316.46446609407" style="stroke:#c00;stroke-width:2;"/>
   <line x1="237" y1="400" x2="247" y2="400" style="stroke:#b0b;stroke-width:1;"/>
   <line x1="249" y1="80" x2="239" y2="80" style="stroke:#b0b;stroke-width:1;"/>
   <line x1="247" y1="400" x2="249" y2="80" style="stroke:#b0b;stroke-width:1;"/>
   <line x1="244.5" y1="400" x2="240.96446609407" y2="403.53553390593" style="stroke:#b0b;stroke-width:2;"/>
   <line x1="244.5" y1="400" x2="240.96446609407" y2="396.46446609407" style="stroke:#b0b;stroke-width:2;"/>
   <line x1="244" y1="80" x2="247.53553390593" y2="83.535533905933" style="stroke:#b0b;stroke-width:2;"/>
   <line x1="244" y1="80" x2="247.53553390593" y2="76.464466094067" style="stroke:#b0b;stroke-width:2;"/>
   <rect width="113" height="20" x="980" y="630" style="fill:#007;stroke:black;"/>
   <text width="113" height="20" x="985" y="644" style="fill:#fff;" font-family="Arial" font-size="16px"> proj_Categorie</text>
   <rect width="113" height="20" x="980" y="650" style="fill:#aea;stroke:black;"/>
   <text width="113" height="20" x="985" y="664" style="fill:black;" font-family="Arial" font-size="16px">idCategorie</text>
   <rect width="113" height="20" x="980" y="670" style="fill:none;stroke:black;"/>
   <text width="113" height="20" x="985" y="684" style="fill:black;" font-family="Arial" font-size="16px">Categorie</text>
   <rect width="113" height="20" x="980" y="690" style="fill:none;stroke:black;"/>
   <text width="113" height="20" x="985" y="704" style="fill:black;" font-family="Arial" font-size="16px">idSalle</text>
   <rect width="80" height="20" x="420" y="290" style="fill:#007;stroke:black;"/>
   <text width="80" height="20" x="425" y="304" style="fill:#fff;" font-family="Arial" font-size="16px"> proj_Place</text>
   <rect width="80" height="20" x="420" y="310" style="fill:#aea;stroke:black;"/>
   <text width="80" height="20" x="425" y="324" style="fill:black;" font-family="Arial" font-size="16px">idPlace</text>
   <rect width="80" height="20" x="420" y="330" style="fill:none;stroke:black;"/>
   <text width="80" height="20" x="425" y="344" style="fill:black;" font-family="Arial" font-size="16px">idSalle</text>
   <rect width="80" height="20" x="420" y="350" style="fill:none;stroke:black;"/>
   <text width="80" height="20" x="425" y="364" style="fill:black;" font-family="Arial" font-size="16px">Categorie</text>
   <rect width="80" height="20" x="420" y="370" style="fill:none;stroke:black;"/>
   <text width="80" height="20" x="425" y="384" style="fill:black;" font-family="Arial" font-size="16px">Handicap</text>
   <rect width="107" height="20" x="990" y="440" style="fill:#007;stroke:black;"/>
   <text width="107" height="20" x="995" y="454" style="fill:#fff;" font-family="Arial" font-size="16px"> proj_PrixPlace</text>
   <rect width="107" height="20" x="990" y="460" style="fill:#aea;stroke:black;"/>
   <text width="107" height="20" x="995" y="474" style="fill:black;" font-family="Arial" font-size="16px">idCategorie</text>
   <rect width="107" height="20" x="990" y="480" style="fill:#aea;stroke:black;"/>
   <text width="107" height="20" x="995" y="494" style="fill:black;" font-family="Arial" font-size="16px">idSpectacle</text>
   <rect width="107" height="20" x="990" y="500" style="fill:none;stroke:black;"/>
   <text width="107" height="20" x="995" y="514" style="fill:black;" font-family="Arial" font-size="16px">Prix</text>
   <rect width="146" height="20" x="940" y="200" style="fill:#007;stroke:black;"/>
   <text width="146" height="20" x="945" y="214" style="fill:#fff;" font-family="Arial" font-size="16px"> proj_Representation</text>
   <rect width="146" height="20" x="940" y="220" style="fill:#aea;stroke:black;"/>
   <text width="146" height="20" x="945" y="234" style="fill:black;" font-family="Arial" font-size="16px">idRepresentation</text>
   <rect width="146" height="20" x="940" y="240" style="fill:none;stroke:black;"/>
   <text width="146" height="20" x="945" y="254" style="fill:black;" font-family="Arial" font-size="16px">idSalle</text>
   <rect width="146" height="20" x="940" y="260" style="fill:none;stroke:black;"/>
   <text width="146" height="20" x="945" y="274" style="fill:black;" font-family="Arial" font-size="16px">idSpectacle</text>
   <rect width="146" height="20" x="940" y="280" style="fill:none;stroke:black;"/>
   <text width="146" height="20" x="945" y="294" style="fill:black;" font-family="Arial" font-size="16px">date</text>
   <rect width="146" height="20" x="940" y="300" style="fill:none;stroke:black;"/>
   <text width="146" height="20" x="945" y="314" style="fill:black;" font-family="Arial" font-size="16px">horaireDebut</text>
   <rect width="146" height="20" x="940" y="320" style="fill:none;stroke:black;"/>
   <text width="146" height="20" x="945" y="334" style="fill:black;" font-family="Arial" font-size="16px">horaireFin</text>
   <rect width="132" height="20" x="510" y="90" style="fill:#007;stroke:black;"/>
   <text width="132" height="20" x="515" y="104" style="fill:#fff;" font-family="Arial" font-size="16px"> proj_Reservation</text>
   <rect width="132" height="20" x="510" y="110" style="fill:#aea;stroke:black;"/>
   <text width="132" height="20" x="515" y="124" style="fill:black;" font-family="Arial" font-size="16px">idUtilisateur</text>
   <rect width="132" height="20" x="510" y="130" style="fill:#aea;stroke:black;"/>
   <text width="132" height="20" x="515" y="144" style="fill:black;" font-family="Arial" font-size="16px">idRepresentation</text>
   <rect width="132" height="20" x="510" y="150" style="fill:#aea;stroke:black;"/>
   <text width="132" height="20" x="515" y="164" style="fill:black;" font-family="Arial" font-size="16px">idPlace</text>
   <rect width="74" height="20" x="460" y="610" style="fill:#007;stroke:black;"/>
   <text width="74" height="20" x="465" y="624" style="fill:#fff;" font-family="Arial" font-size="16px"> proj_Salle</text>
   <rect width="74" height="20" x="460" y="630" style="fill:#aea;stroke:black;"/>
   <text width="74" height="20" x="465" y="644" style="fill:black;" font-family="Arial" font-size="16px">idSalle</text>
   <rect width="74" height="20" x="460" y="650" style="fill:none;stroke:black;"/>
   <text width="74" height="20" x="465" y="664" style="fill:black;" font-family="Arial" font-size="16px">nom</text>
   <rect width="74" height="20" x="460" y="670" style="fill:none;stroke:black;"/>
   <text width="74" height="20" x="465" y="684" style="fill:black;" font-family="Arial" font-size="16px">adresse</text>
   <rect width="74" height="20" x="460" y="690" style="fill:none;stroke:black;"/>
   <text width="74" height="20" x="465" y="704" style="fill:black;" font-family="Arial" font-size="16px">type</text>
   <rect width="114" height="20" x="100" y="540" style="fill:#007;stroke:black;"/>
   <text width="114" height="20" x="105" y="554" style="fill:#fff;" font-family="Arial" font-size="16px"> proj_Spectacle</text>
   <rect width="114" height="20" x="100" y="560" style="fill:#aea;stroke:black;"/>
   <text width="114" height="20" x="105" y="574" style="fill:black;" font-family="Arial" font-size="16px">idSpectacle</text>
   <rect width="114" height="20" x="100" y="580" style="fill:none;stroke:black;"/>
   <text width="114" height="20" x="105" y="594" style="fill:black;" font-family="Arial" font-size="16px">nom</text>
   <rect width="114" height="20" x="100" y="600" style="fill:none;stroke:black;"/>
   <text width="114" height="20" x="105" y="614" style="fill:black;" font-family="Arial" font-size="16px">type</text>
   <rect width="114" height="20" x="100" y="620" style="fill:none;stroke:black;"/>
   <text width="114" height="20" x="105" y="634" style="fill:black;" font-family="Arial" font-size="16px">infos</text>
   <rect width="114" height="20" x="100" y="640" style="fill:none;stroke:black;"/>
   <text width="114" height="20" x="105" y="654" style="fill:black;" font-family="Arial" font-size="16px">nomImage</text>
   <rect width="159" height="20" x="80" y="50" style="fill:#007;stroke:black;"/>
   <text width="159" height="20" x="85" y="64" style="fill:#fff;" font-family="Arial" font-size="16px"> proj_Types_Utilisateur</text>
   <rect width="159" height="20" x="80" y="70" style="fill:#aea;stroke:black;"/>
   <text width="159" height="20" x="85" y="84" style="fill:black;" font-family="Arial" font-size="16px">TypeUtilisateur</text>
   <rect width="137" height="20" x="100" y="150" style="fill:#007;stroke:black;"/>
   <text width="137" height="20" x="105" y="164" style="fill:#fff;" font-family="Arial" font-size="16px"> proj_utilisateur</text>
   <rect width="137" height="20" x="100" y="170" style="fill:#aea;stroke:black;"/>
   <text width="137" height="20" x="105" y="184" style="fill:black;" font-family="Arial" font-size="16px">idUtilisateur</text>
   <rect width="137" height="20" x="100" y="190" style="fill:none;stroke:black;"/>
   <text width="137" height="20" x="105" y="204" style="fill:black;" font-family="Arial" font-size="16px">login</text>
   <rect width="137" height="20" x="100" y="210" style="fill:none;stroke:black;"/>
   <text width="137" height="20" x="105" y="224" style="fill:black;" font-family="Arial" font-size="16px">passHash</text>
   <rect width="137" height="20" x="100" y="230" style="fill:none;stroke:black;"/>
   <text width="137" height="20" x="105" y="244" style="fill:black;" font-family="Arial" font-size="16px">nom</text>
   <rect width="137" height="20" x="100" y="250" style="fill:none;stroke:black;"/>
   <text width="137" height="20" x="105" y="264" style="fill:black;" font-family="Arial" font-size="16px">prenom</text>
   <rect width="137" height="20" x="100" y="270" style="fill:none;stroke:black;"/>
   <text width="137" height="20" x="105" y="284" style="fill:black;" font-family="Arial" font-size="16px">adressePostale1</text>
   <rect width="137" height="20" x="100" y="290" style="fill:none;stroke:black;"/>
   <text width="137" height="20" x="105" y="304" style="fill:black;" font-family="Arial" font-size="16px">adressePostale2</text>
   <rect width="137" height="20" x="100" y="310" style="fill:none;stroke:black;"/>
   <text width="137" height="20" x="105" y="324" style="fill:black;" font-family="Arial" font-size="16px">codePostal</text>
   <rect width="137" height="20" x="100" y="330" style="fill:none;stroke:black;"/>
   <text width="137" height="20" x="105" y="344" style="fill:black;" font-family="Arial" font-size="16px">ville</text>
   <rect width="137" height="20" x="100" y="350" style="fill:none;stroke:black;"/>
   <text width="137" height="20" x="105" y="364" style="fill:black;" font-family="Arial" font-size="16px">adresseMail</text>
   <rect width="137" height="20" x="100" y="370" style="fill:none;stroke:black;"/>
   <text width="137" height="20" x="105" y="384" style="fill:black;" font-family="Arial" font-size="16px">telephone</text>
   <rect width="137" height="20" x="100" y="390" style="fill:none;stroke:black;"/>
   <text width="137" height="20" x="105" y="404" style="fill:black;" font-family="Arial" font-size="16px">typeUtilisateur</text>
   <rect width="137" height="20" x="100" y="410" style="fill:none;stroke:black;"/>
   <text width="137" height="20" x="105" y="424" style="fill:black;" font-family="Arial" font-size="16px">code_confirmation</text>
   <rect width="137" height="20" x="100" y="430" style="fill:none;stroke:black;"/>
   <text width="137" height="20" x="105" y="444" style="fill:black;" font-family="Arial" font-size="16px">date_confirmation</text>
</svg>
